<?xml version="1.0" encoding="UTF-8"?>
<svg width="20px" height="24px" viewBox="0 0 20 24" version="1.1" xmlns="http://www.w3.org/2000/svg" xmlns:xlink="http://www.w3.org/1999/xlink">
    <!-- Generator: Sketch 52.6 (67491) - http://www.bohemiancoding.com/sketch -->
    <title>design-tool-pen-station</title>
    <desc>Created with Sketch.</desc>
    <g id="Page-1" stroke="none" stroke-width="1" fill="none" fill-rule="evenodd">
        <g id="design-tool-pen-station" transform="translate(1.000000, 0.000000)" stroke="#FFFFFF">
            <path d="M14,12.5 L15,12.5 C16.6568542,12.5 18,13.8431458 18,15.5 C18,17.1568542 16.6568542,18.5 15,18.5 L14,18.5" id="Shape"></path>
            <path d="M14,21.5 C14,22.6045695 13.1045695,23.5 12,23.5 L3,23.5 C1.8954305,23.5 1,22.6045695 1,21.5 L1,11 C1,10.7238576 1.22385763,10.5 1.5,10.5 L13.5,10.5 C13.7761424,10.5 14,10.7238576 14,11 L14,21.5 Z" id="Shape"></path>
            <path d="M13.881,0.564 C14.914,2.138 13.381,3.001 13.028,3.846 C12.8381551,4.24291307 12.8261777,4.70185917 12.9950614,5.10813418 C13.1639451,5.51440918 13.4977324,5.82962503 13.913,5.975 C16.813,7.2 17.677,1.482 13.881,0.564 Z" id="Shape"></path>
            <path d="M11,10.5 L13.609,5.813" id="Shape"></path>
            <path d="M14.641,6.156 L13,10.5" id="Shape"></path>
            <polygon id="Shape" points="5 10.5 2 10.5 0.5 7.5 0 4.5 2.5 6"></polygon>
            <path d="M0.5,7.5 L2.5,6" id="Shape"></path>
            <path d="M10,1 C10,0.723857625 9.77614237,0.5 9.5,0.5 L6.5,0.5 C6.22385763,0.5 6,0.723857625 6,1 L6,10.5 L10,10.5 L10,1 Z" id="Shape"></path>
            <path d="M10,2.5 L8,2.5" id="Shape"></path>
            <path d="M10,4.5 L9,4.5" id="Shape"></path>
            <path d="M10,6.5 L8,6.5" id="Shape"></path>
            <path d="M10,8.5 L9,8.5" id="Shape"></path>
        </g>
    </g>
</svg>