<?xml version="1.0" encoding="UTF-8"?>
<svg width="24px" height="22px" viewBox="0 0 24 22" version="1.1" xmlns="http://www.w3.org/2000/svg" xmlns:xlink="http://www.w3.org/1999/xlink">
    <!-- Generator: Sketch 52.6 (67491) - http://www.bohemiancoding.com/sketch -->
    <title>like-1</title>
    <desc>Created with Sketch.</desc>
    <g id="Page-1" stroke="none" stroke-width="1" fill="none" fill-rule="evenodd">
        <g id="like-1" stroke="#FFFFFF">
            <path d="M20,14.659 C20.5358984,14.659 21.031089,14.9448984 21.2990382,15.409 C21.5669874,15.8731016 21.5669874,16.4448984 21.2990382,16.909 C21.031089,17.3731016 20.5358984,17.659 20,17.659 L19,17.659 C19.8284271,17.659 20.5,18.3305729 20.5,19.159 C20.5,19.988 19.828,20.159 19,20.159 L12.5,20.159 C9.649,20.159 9,19.659 5.5,19.159 L5.5,10.659 C7.95,10.659 12,6.159 12,2.159 C12,0.578 14.189,-0.011 15,2.878 C15.5,4.659 14,8.159 14,8.159 L22,8.159 C22.8284271,8.159 23.5,8.83057288 23.5,9.659 C23.5,10.488 22.828,11.659 22,11.659 L21,11.659 C21.8284271,11.659 22.5,12.3305729 22.5,13.159 C22.5,13.9874271 21.8284271,14.659 21,14.659 L20,14.659" id="Shape"></path>
            <rect id="Rectangle-path" x="0.5" y="9.159" width="5" height="12"></rect>
            <path d="M3.25,18.659 C3.11192881,18.659 3,18.7709288 3,18.909 C3,19.0470712 3.11192881,19.159 3.25,19.159 C3.38807119,19.159 3.5,19.0470712 3.5,18.909 C3.5,18.7709288 3.38807119,18.659 3.25,18.659" id="Shape"></path>
        </g>
    </g>
</svg>