<?xml version="1.0" encoding="UTF-8"?>
<svg width="24px" height="24px" viewBox="0 0 24 24" version="1.1" xmlns="http://www.w3.org/2000/svg" xmlns:xlink="http://www.w3.org/1999/xlink">
    <!-- Generator: Sketch 52.6 (67491) - http://www.bohemiancoding.com/sketch -->
    <title>Free-Pack / plane-trip-international@2x</title>
    <desc>Created with Sketch.</desc>
    <g id="Free-Pack-/-plane-trip-international" stroke="none" stroke-width="1" fill="none" fill-rule="evenodd" stroke-linecap="round" stroke-linejoin="round">
        <g id="Group" stroke="#3F9BD7">
            <g id="Light">
                <path d="M11.684,17.658 L9.261,16.574 C9.1150083,16.5087948 8.94663669,16.5173435 8.808,16.597 L7.735,17.214 C7.58361878,17.3008501 7.48847794,17.4603491 7.48398346,17.6348169 C7.47948897,17.8092847 7.56629132,17.9734707 7.713,18.068 L11.37,20.428 C11.5052719,20.5151914 11.6742437,20.5319397 11.824,20.473 L16.124,18.773 L14.673,22.541 C14.5973615,22.735637 14.650646,22.9567825 14.806632,23.0956101 C14.9626181,23.2344377 15.1884519,23.2617075 15.373,23.164 L16.34,22.664 C16.4274817,22.6192233 16.4998283,22.5496592 16.548,22.464 L19.248,17.536 L22.7,16.011 C23.3508676,15.7378952 23.6571048,14.9888676 23.384,14.338 C23.1108952,13.6871324 22.3618676,13.3808952 21.711,13.654 L11.684,17.658 Z" id="Shape"></path>
                <path d="M18.034,15.123 L14.207,12.723 C14.056079,12.6270963 13.8654313,12.6190891 13.707,12.702 L12.681,13.232 C12.5233264,13.3131346 12.4204204,13.4717116 12.4105501,13.6487606 C12.4006798,13.8258097 12.4853217,13.9948423 12.633,14.093 L15.622,16.081" id="Shape"></path>
                <path d="M6.541,15.628 C2.67247271,14.8421775 0.0752734389,11.1921554 0.600744589,7.27975199 C1.12621574,3.36734858 4.59446287,0.531970747 8.53324093,0.794739963 C12.472019,1.05750918 15.5328918,4.32846671 15.534,8.276" id="Shape"></path>
                <path d="M3.362,14.137 L4.034,10.776 L4.754,10.776 C5.06178989,10.775915 5.35239321,10.6340965 5.54184433,10.3915209 C5.73129544,10.1489454 5.79848517,9.83264123 5.724,9.534 L5.224,7.534 C5.11292916,7.08867183 4.71297047,6.77612679 4.254,6.776 L0.685,6.776" id="Shape"></path>
                <path d="M14.024,3.776 L11.315,3.776 C10.8560295,3.77612679 10.4560708,4.08867183 10.345,4.534 L9.845,6.534 C9.77051483,6.83264123 9.83770456,7.14894538 10.0271557,7.39152093 C10.2166068,7.63409648 10.5072101,7.77591498 10.815,7.776 L11.868,7.776 L12.395,10.941" id="Shape"></path>
            </g>
        </g>
    </g>
</svg>