<?xml version="1.0" encoding="UTF-8"?>
<svg width="107px" height="32px" viewBox="0 0 107 32" version="1.1" xmlns="http://www.w3.org/2000/svg" xmlns:xlink="http://www.w3.org/1999/xlink">
    <!-- Generator: Sketch 52.6 (67491) - http://www.bohemiancoding.com/sketch -->
    <title>Group</title>
    <desc>Created with Sketch.</desc>
    <defs>
        <path d="M46.27,29.24 C44.6899921,29.24 43.1650073,28.9950025 41.695,28.505 C40.2249926,28.0149976 39.0700042,27.3800039 38.23,26.6 L39.34,24.26 C40.140004,24.9800036 41.1649938,25.5649977 42.415,26.015 C43.6650062,26.4650022 44.9499934,26.69 46.27,26.69 C48.0100087,26.69 49.3099957,26.3950029 50.17,25.805 C51.0300043,25.2149971 51.46,24.4300049 51.46,23.45 C51.46,22.7299964 51.2250023,22.1450023 50.755,21.695 C50.2849977,21.2449977 49.7050034,20.9000012 49.015,20.66 C48.3249966,20.4199988 47.3500063,20.1500015 46.09,19.85 C44.5099921,19.4699981 43.2350048,19.0900019 42.265,18.71 C41.2949951,18.3299981 40.4650034,17.745004 39.775,16.955 C39.0849965,16.1649961 38.74,15.1000067 38.74,13.76 C38.74,12.6399944 39.0349971,11.6300045 39.625,10.73 C40.2150029,9.8299955 41.109994,9.1100027 42.31,8.57 C43.510006,8.0299973 44.9999911,7.76 46.78,7.76 C48.0200062,7.76 49.239994,7.9199984 50.44,8.24 C51.640006,8.5600016 52.6699957,9.019997 53.53,9.62 L52.54,12.02 C51.6599956,11.4599972 50.720005,11.0350015 49.72,10.745 C48.719995,10.4549985 47.7400048,10.31 46.78,10.31 C45.0799915,10.31 43.8050042,10.6199969 42.955,11.24 C42.1049958,11.8600031 41.68,12.6599951 41.68,13.64 C41.68,14.3600036 41.9199976,14.9449977 42.4,15.395 C42.8800024,15.8450023 43.4749964,16.1949987 44.185,16.445 C44.8950035,16.6950013 45.8599939,16.9599986 47.08,17.24 C48.6600079,17.6200019 49.9299952,17.9999981 50.89,18.38 C51.8500048,18.7600019 52.6749966,19.3399961 53.365,20.12 C54.0550035,20.9000039 54.4,21.9499934 54.4,23.27 C54.4,24.3700055 54.100003,25.3749955 53.5,26.285 C52.899997,27.1950046 51.9900061,27.9149974 50.77,28.445 C49.5499939,28.9750027 48.0500089,29.24 46.27,29.24 Z M66.79,12.95 C68.3300077,12.95 69.7099939,13.2899966 70.93,13.97 C72.1500061,14.6500034 73.1049965,15.5999939 73.795,16.82 C74.4850034,18.0400061 74.83,19.449992 74.83,21.05 C74.83,22.650008 74.4850034,24.0649939 73.795,25.295 C73.1049965,26.5250061 72.1500061,27.4799966 70.93,28.16 C69.7099939,28.8400034 68.3300077,29.18 66.79,29.18 C65.6499943,29.18 64.6050048,28.9600022 63.655,28.52 C62.7049952,28.0799978 61.9000033,27.4400042 61.24,26.6 L61.24,34.82 L58.36,34.82 L58.36,13.1 L61.12,13.1 L61.12,15.62 C61.7600032,14.7399956 62.5699951,14.0750023 63.55,13.625 C64.5300049,13.1749977 65.6099941,12.95 66.79,12.95 Z M66.55,26.66 C67.5700051,26.66 68.4849959,26.4250023 69.295,25.955 C70.105004,25.4849977 70.7449976,24.8250042 71.215,23.975 C71.6850023,23.1249958 71.92,22.1500055 71.92,21.05 C71.92,19.9499945 71.6850023,18.9750042 71.215,18.125 C70.7449976,17.2749958 70.105004,16.6200023 69.295,16.16 C68.4849959,15.6999977 67.5700051,15.47 66.55,15.47 C65.549995,15.47 64.645004,15.7049976 63.835,16.175 C63.0249959,16.6450024 62.3850024,17.2999958 61.915,18.14 C61.4449976,18.9800042 61.21,19.9499945 61.21,21.05 C61.21,22.1500055 61.4399977,23.1249958 61.9,23.975 C62.3600023,24.8250042 62.9999959,25.4849977 63.82,25.955 C64.6400041,26.4250023 65.549995,26.66 66.55,26.66 Z M85.63,29.18 C84.0499921,29.18 82.6300063,28.8300035 81.37,28.13 C80.1099937,27.4299965 79.1250036,26.4650062 78.415,25.235 C77.7049965,24.0049938 77.35,22.6100078 77.35,21.05 C77.35,19.4899922 77.7049965,18.0950061 78.415,16.865 C79.1250036,15.6349939 80.1099937,14.6750035 81.37,13.985 C82.6300063,13.2949965 84.0499921,12.95 85.63,12.95 C87.2100079,12.95 88.6249938,13.2949965 89.875,13.985 C91.1250062,14.6750035 92.1049965,15.6349939 92.815,16.865 C93.5250036,18.0950061 93.88,19.4899922 93.88,21.05 C93.88,22.6100078 93.5250036,24.0049938 92.815,25.235 C92.1049965,26.4650062 91.1250062,27.4299965 89.875,28.13 C88.6249938,28.8300035 87.2100079,29.18 85.63,29.18 Z M85.63,26.66 C86.6500051,26.66 87.564996,26.4250023 88.375,25.955 C89.1850041,25.4849977 89.8199977,24.8250042 90.28,23.975 C90.7400023,23.1249958 90.97,22.1500055 90.97,21.05 C90.97,19.9499945 90.7400023,18.9750042 90.28,18.125 C89.8199977,17.2749958 89.1850041,16.6200023 88.375,16.16 C87.564996,15.6999977 86.6500051,15.47 85.63,15.47 C84.6099949,15.47 83.695004,15.6999977 82.885,16.16 C82.074996,16.6200023 81.4350024,17.2749958 80.965,18.125 C80.4949977,18.9750042 80.26,19.9499945 80.26,21.05 C80.26,22.1500055 80.4949977,23.1249958 80.965,23.975 C81.4350024,24.8250042 82.074996,25.4849977 82.885,25.955 C83.695004,26.4250023 84.6099949,26.66 85.63,26.66 Z M106.81,28.07 C106.389998,28.4300018 105.870003,28.704999 105.25,28.895 C104.629997,29.085001 103.990003,29.18 103.33,29.18 C101.729992,29.18 100.490004,28.7500043 99.61,27.89 C98.7299956,27.0299957 98.29,25.800008 98.29,24.2 L98.29,15.47 L95.59,15.47 L95.59,13.1 L98.29,13.1 L98.29,9.62 L101.17,9.62 L101.17,13.1 L105.73,13.1 L105.73,15.47 L101.17,15.47 L101.17,24.08 C101.17,24.9400043 101.384998,25.5999977 101.815,26.06 C102.245002,26.5200023 102.859996,26.75 103.66,26.75 C104.540004,26.75 105.289997,26.5000025 105.91,26 L106.81,28.07 Z" id="path-1"></path>
    </defs>
    <g id="Page-1" stroke="none" stroke-width="1" fill="none" fill-rule="evenodd">
        <g id="Group" transform="translate(0.000000, -3.000000)">
            <g id="Group-2" transform="translate(0.000000, 3.000000)">
                <g id="code-merge-solid" transform="translate(0.000000, 0.333333)">
                    <rect id="Rectangle" fill="#3F9BD7" fill-rule="nonzero" x="0" y="0" width="30" height="30" rx="2"></rect>
                    <path d="M12.7388055,7.35810664 C13.0740518,7.9477164 13.2525512,8.61343448 13.2572565,9.29168404 C13.2572565,11.5065573 11.4618653,13.3020668 9.24713799,13.3020668 C8.56893312,13.2973611 7.90325891,13.1188501 7.31368799,12.7835816 C6.35974847,16.0921933 7.62983307,19.6400628 10.4667635,21.5914204 C13.303694,23.5427781 17.0709138,23.4597742 19.8191553,21.3853574 C22.5673967,19.3109405 23.6800035,15.7105727 22.581281,12.4471877 C21.4825585,9.18380274 18.4190403,6.9896458 14.9758787,7.00003675 C14.2169118,7.01190022 13.4635621,7.13248269 12.7388055,7.35810664 Z" id="Path" fill="#FFFFFF" transform="translate(15.000000, 15.000000) rotate(-225.000000) translate(-15.000000, -15.000000) "></path>
                    <circle id="Oval" fill="#FFFFFF" fill-rule="nonzero" cx="24" cy="15" r="2"></circle>
                </g>
            </g>
            <g id="Spot" opacity="0.799246652">
                <use fill="#FFFFFF" xlink:href="#path-1"></use>
                <use fill="#141C25" xlink:href="#path-1"></use>
            </g>
        </g>
    </g>
</svg>